<svg fill="none" height="100%" width="100%" viewBox="0 0 500 500" xmlns:xlink="http://www.w3.org/1999/xlink" xmlns="http://www.w3.org/2000/svg"><g transform="matrix(1,0,0,1,0,0)" id="i0"><g id="i1"><path fill="#7ae570" d="M158,406C173.464,406,186,393.464,186,378C186,362.536,173.464,350,158,350C142.536,350,130,362.536,130,378C130,393.464,142.536,406,158,406C158,406,158,406,158,406Z" /></g><g id="i2"><path fill="#7ae570" d="M342,406C357.464,406,370,393.464,370,378C370,362.536,357.464,350,342,350C326.536,350,314,362.536,314,378C314,393.464,326.536,406,342,406C342,406,342,406,342,406Z" /></g><g id="i3"><path fill="#52a54a" d="M164,425C164,425,164,355,164,355C164,355,336,355,336,355C336,355,336,425,336,425C336,425,264,425,264,425C264,425,264,387,264,387C264,387,236,387,236,387C236,387,236,425,236,425C236,425,164,425,164,425C164,425,164,425,164,425Z" /></g><g id="i4"><path fill="#ffff47" d="M129,449C129,435.7,139.7,425,153,425C153,425,236,425,236,425C236,425,236,449,236,449C236,449,129,449,129,449C129,449,129,449,129,449Z" /></g><g id="i5"><path fill="#52a54a" d="M129,449C129,449,236,449,236,449C236,449,236,461,236,461C236,461,129,461,129,461C129,461,129,449,129,449C129,449,129,449,129,449Z" /></g><g id="i6"><path fill="#f8f872" d="M166,425C166,425,164,425,164,425C164,425,164,440,164,440C164,440,166,440,166,440C166,440,166,425,166,425C166,425,166,425,166,425Z" /></g><g id="i7"><path fill="#f8f872" d="M174,425C174,425,172,425,172,425C172,425,172,440,172,440C172,440,174,440,174,440C174,440,174,425,174,425C174,425,174,425,174,425Z" /></g><g id="i8"><path fill="#f8f872" d="M182,425C182,425,180,425,180,425C180,425,180,440,180,440C180,440,182,440,182,440C182,440,182,425,182,425C182,425,182,425,182,425Z" /></g><g id="i9"><path fill="#ffff47" d="M371,449C371,435.7,360.3,425,347,425C347,425,264,425,264,425C264,425,264,449,264,449C264,449,371,449,371,449C371,449,371,449,371,449Z" /></g><g id="i10"><path fill="#52a54a" d="M371,449C371,449,264,449,264,449C264,449,264,461,264,461C264,461,371,461,371,461C371,461,371,449,371,449C371,449,371,449,371,449Z" /></g><g id="i11"><path fill="#f8f872" d="M320,425C320,425,318,425,318,425C318,425,318,440,318,440C318,440,320,440,320,440C320,440,320,425,320,425C320,425,320,425,320,425Z" /></g><g id="i12"><path fill="#f8f872" d="M328,425C328,425,326,425,326,425C326,425,326,440,326,440C326,440,328,440,328,440C328,440,328,425,328,425C328,425,328,425,328,425Z" /></g><g id="i13"><path fill="#f8f872" d="M336,425C336,425,334,425,334,425C334,425,334,440,334,440C334,440,336,440,336,440C336,440,336,425,336,425C336,425,336,425,336,425Z" /></g><g id="i14"><path fill="#52a54a" d="M139,169.5C139,169.5,197,164,197,164C197,164,197,373,197,373C197,373,129,373,129,373C129,373,139,169.5,139,169.5C139,169.5,139,169.5,139,169.5Z" /></g><g id="i15"><path fill="#52a54a" d="M361,170.5C361,170.5,303,164,303,164C303,164,303,373,303,373C303,373,371,373,371,373C371,373,361,170.5,361,170.5C361,170.5,361,170.5,361,170.5Z" /></g><g id="i16" transform="matrix(1,0,0,1,0,0)"><path d="M139.201,177.5C136.501,156,153.201,137,174.901,137C174.901,137,325.201,137,325.201,137C346.901,137,363.601,156,360.901,177.5C360.901,177.5,336.101,373,336.101,373C336.101,373,164.101,373,164.101,373C164.101,373,139.301,177.5,139.301,177.5C139.301,177.5,139.201,177.5,139.201,177.5Z" fill="#ffff47"><animate repeatCount="indefinite" attributeName="d" dur="5s" begin="0s" calcMode="spline" values="M139.201,177.5C136.501,156,153.201,137,174.901,137C174.901,137,325.201,137,325.201,137C346.901,137,363.601,156,360.901,177.5C360.901,177.5,336.101,373,336.101,373C336.101,373,164.101,373,164.101,373C164.101,373,139.301,177.5,139.301,177.5C139.301,177.5,139.201,177.5,139.201,177.5Z; M139.201,172.5C136.501,151,153.201,132,174.901,132C174.901,132,325.201,132,325.201,132C346.901,132,363.601,151,360.901,172.5C360.901,172.5,336.101,373,336.101,373C336.101,373,164.101,373,164.101,373C164.101,373,139.301,172.5,139.301,172.5C139.301,172.5,139.201,172.5,139.201,172.5Z; M139.201,172.5C136.501,151,153.201,132,174.901,132C174.901,132,325.201,132,325.201,132C346.901,132,363.601,151,360.901,172.5C360.901,172.5,336.101,373,336.101,373C336.101,373,164.101,373,164.101,373C164.101,373,139.301,172.5,139.301,172.5C139.301,172.5,139.201,172.5,139.201,172.5Z; M139.201,177.5C136.501,156,153.201,137,174.901,137C174.901,137,325.201,137,325.201,137C346.901,137,363.601,156,360.901,177.5C360.901,177.5,336.101,373,336.101,373C336.101,373,164.101,373,164.101,373C164.101,373,139.301,177.5,139.301,177.5C139.301,177.5,139.201,177.5,139.201,177.5Z; M139.201,177.5C136.501,156,153.201,137,174.901,137C174.901,137,325.201,137,325.201,137C346.901,137,363.601,156,360.901,177.5C360.901,177.5,336.101,373,336.101,373C336.101,373,164.101,373,164.101,373C164.101,373,139.301,177.5,139.301,177.5C139.301,177.5,139.201,177.5,139.201,177.5Z; M139.201,172.5C136.501,151,153.201,132,174.901,132C174.901,132,325.201,132,325.201,132C346.901,132,363.601,151,360.901,172.5C360.901,172.5,336.101,373,336.101,373C336.101,373,164.101,373,164.101,373C164.101,373,139.301,172.5,139.301,172.5C139.301,172.5,139.201,172.5,139.201,172.5Z; M139.201,172.5C136.501,151,153.201,132,174.901,132C174.901,132,325.201,132,325.201,132C346.901,132,363.601,151,360.901,172.5C360.901,172.5,336.101,373,336.101,373C336.101,373,164.101,373,164.101,373C164.101,373,139.301,172.5,139.301,172.5C139.301,172.5,139.201,172.5,139.201,172.5Z; M139.201,177.5C136.501,156,153.201,137,174.901,137C174.901,137,325.201,137,325.201,137C346.901,137,363.601,156,360.901,177.5C360.901,177.5,336.101,373,336.101,373C336.101,373,164.101,373,164.101,373C164.101,373,139.301,177.5,139.301,177.5C139.301,177.5,139.201,177.5,139.201,177.5Z; M139.201,177.5C136.501,156,153.201,137,174.901,137C174.901,137,325.201,137,325.201,137C346.901,137,363.601,156,360.901,177.5C360.901,177.5,336.101,373,336.101,373C336.101,373,164.101,373,164.101,373C164.101,373,139.301,177.5,139.301,177.5C139.301,177.5,139.201,177.5,139.201,177.5Z" keyTimes="0; 0.12; 0.14; 0.266666; 0.533334; 0.653334; 0.673334; 0.8; 1" keySplines="0 0 1 1; 0 0 1 1; 0 0 1 1; 0 0 1 1; 0 0 1 1; 0 0 1 1; 0 0 1 1; 0 0 1 1" fill="freeze" /></path></g><g id="i17" transform="matrix(1,0,0,1,0,0)"><path fill="#f8f872" d="M180,166C180,166,192.4,149,192.4,149C192.4,149,224.9,155.2,224.9,155.2C224.9,155.2,224.9,290,224.9,290C224.9,290,180,212.5,180,212.5C180,212.5,198.6,190.8,198.6,190.8C198.6,190.8,180,166,180,166C180,166,180,166,180,166Z" /></g><g id="i18"><path fill="#f8f872" d="M320.599,166C320.599,166,308.199,149,308.199,149C308.199,149,275.699,155.2,275.699,155.2C275.699,155.2,275.699,290,275.699,290C275.699,290,320.599,212.5,320.599,212.5C320.599,212.5,301.999,190.8,301.999,190.8C301.999,190.8,320.599,166,320.599,166C320.599,166,320.599,166,320.599,166Z" /></g><g id="i19"><path fill="#2e552a" d="M279,165C279,165,222,165,222,165C222,165,222,203,222,203C222,203,279,203,279,203C279,203,279,165,279,165C279,165,279,165,279,165Z" /></g><g id="i20" transform="matrix(1,0,0,1,0,0)"><path fill="#ffffff" d="M279,184C261.8,201.2,235.5,200.5,222,184C222,184,222,373,222,373C222,373,279,373,279,373C279,373,279,184,279,184C279,184,279,184,279,184Z" /></g><g id="i21"><path fill="#ddddc0" d="M203,125C203,125,195,125,195,125C192.791,125,191,126.791,191,129C191,129,191,147,191,147C191,149.209,192.791,151,195,151C195,151,203,151,203,151C205.209,151,207,149.209,207,147C207,147,207,129,207,129C207,126.791,205.209,125,203,125C203,125,203,125,203,125Z" /></g><g id="i22"><path fill="#ddddc0" d="M305,125C305,125,297,125,297,125C294.791,125,293,126.791,293,129C293,129,293,147,293,147C293,149.209,294.791,151,297,151C297,151,305,151,305,151C307.209,151,309,149.209,309,147C309,147,309,129,309,129C309,126.791,307.209,125,305,125C305,125,305,125,305,125Z" /></g><g id="i23"><path fill="#7ae570" d="M300.6,65.199C300.6,65.199,300.6,141.599,300.6,141.599C300.6,150.699,293.3,157.999,284.2,157.999C284.2,158.099,284.2,158.299,284.2,158.399C284.2,158.399,284.2,163.199,284.2,163.199C284.2,170.099,278.6,175.699,271.7,175.699C271.7,175.699,228.9,175.699,228.9,175.699C222,175.699,216.4,170.099,216.4,163.199C216.4,163.199,216.4,158.399,216.4,158.399C216.4,158.299,216.4,158.099,216.4,157.999C216.4,157.999,216.2,157.999,216.1,157.999C207.2,157.799,200,150.599,200,141.599C200,141.599,200,65.199,200,65.199C200,50.799,211.6,39.199,226,39.199C226,39.199,274.7,39.199,274.7,39.199C289.1,39.199,300.7,50.799,300.7,65.199C300.7,65.199,300.6,65.199,300.6,65.199C300.6,65.199,300.6,65.199,300.6,65.199Z" /></g><g id="i24"><path fill="#2e552a" d="M216,137C216,137,216,158.1,216,158.1C207.1,157.9,199.9,150.7,199.9,141.7C199.9,141.7,199.9,125,199.9,125C199.9,125,204,125,204,125C210.6,125,216,130.4,216,137C216,137,216,137,216,137Z" /></g><g id="i25"><path fill="#2e552a" d="M300.6,124.998C300.6,124.998,300.6,141.698,300.6,141.698C300.6,150.798,293.3,158.098,284.2,158.098C284.2,158.198,284.2,158.398,284.2,158.498C284.2,158.498,284.2,159.998,284.2,159.998C284.1,159.298,284,158.598,284,157.898C284,157.898,284,136.898,284,136.898C284,130.298,289.4,124.898,296,124.898C296,124.898,300.6,124.898,300.6,124.898C300.6,124.898,300.6,124.998,300.6,124.998C300.6,124.998,300.6,124.998,300.6,124.998Z" /></g><g id="i26"><path fill="#000000" d="M300.6,65.199C300.6,65.199,300.6,72.299,300.6,72.299C300.6,72.299,289.7,64.699,289.7,64.699C287.8,63.399,285.3,63.499,283.6,64.999C283.6,64.999,278.2,69.699,278.2,69.699C276.4,71.299,273.7,71.299,271.8,69.799C271.8,69.799,265.8,64.999,265.8,64.999C263.9,63.499,261.3,63.499,259.5,64.999C259.5,64.999,253.8,69.799,253.8,69.799C252,71.299,249.3,71.299,247.5,69.799C247.5,69.799,241.2,64.799,241.2,64.799C239.4,63.399,236.9,63.299,235.1,64.699C235.1,64.699,228,69.999,228,69.999C226.1,71.399,223.4,71.299,221.7,69.699C221.7,69.699,216.8,65.299,216.8,65.299C215,63.699,212.3,63.599,210.4,64.999C210.4,64.999,200.1,72.899,200.1,72.899C200.1,72.899,200.1,65.199,200.1,65.199C200.1,50.799,211.7,39.199,226.1,39.199C226.1,39.199,274.8,39.199,274.8,39.199C289.2,39.199,300.8,50.799,300.8,65.199C300.8,65.199,300.6,65.199,300.6,65.199C300.6,65.199,300.6,65.199,300.6,65.199Z" /></g><g id="i27"><path fill="#2e552a" d="M225.8,129.6C233.422,129.6,239.6,123.869,239.6,116.8C239.6,109.731,233.422,104,225.8,104C218.178,104,212,109.731,212,116.8C212,123.869,218.178,129.6,225.8,129.6C225.8,129.6,225.8,129.6,225.8,129.6Z" /></g><g id="i28"><path fill="#ffffff" d="M225.8,125.7C233.422,125.7,239.6,119.969,239.6,112.9C239.6,105.83,233.422,100.1,225.8,100.1C218.178,100.1,212,105.83,212,112.9C212,119.969,218.178,125.7,225.8,125.7C225.8,125.7,225.8,125.7,225.8,125.7Z" /></g><g><g transform="translate(226,108)"><animateTransform repeatCount="indefinite" type="translate" attributeName="transform" dur="5s" begin="0s" calcMode="spline" values="226 108; 221.992 108.901; 221.992 108.901; 229.63 108.92; 229.63 108.92; 226 108; 226 108; 221.992 108.901; 221.992 108.901; 229.63 108.92; 229.63 108.92; 226 108; 226 108" keyTimes="0; 0.046666; 0.166667; 0.213333; 0.326667; 0.346666; 0.533334; 0.58; 0.7; 0.746667; 0.86; 0.88; 1" keySplines="0 0 0.36 1; 0.65 0 0.36 1; 0.65 0 0.36 1; 0.65 0 1 1; 0.65 0 1 1; 0 0 0.36 1; 0 0 0.36 1; 0.65 0 0.36 1; 0.65 0 0.36 1; 0.65 0 1 1; 0.65 0 1 1; 0 0 1 1" fill="freeze" /><g id="i29" transform="translate(-226,-108)"><path fill="#000000" d="M226.1,116.8C231.126,116.8,235.2,113.039,235.2,108.4C235.2,103.761,231.126,100,226.1,100C221.074,100,217,103.761,217,108.4C217,113.039,221.074,116.8,226.1,116.8C226.1,116.8,226.1,116.8,226.1,116.8Z" /></g></g></g><g><g transform="translate(226,105)"><animateTransform repeatCount="indefinite" type="translate" attributeName="transform" dur="5s" begin="0s" calcMode="spline" values="226 105; 226 102; 226 102; 226 105; 226 105; 226 102; 226 102; 226 105; 226 105" keyTimes="0; 0.046667; 0.166666; 0.213333; 0.533333; 0.58; 0.7; 0.746667; 1" keySplines="0 0 1 1; 0 0 1 1; 0 0 1 1; 0 0 1 1; 0 0 1 1; 0 0 1 1; 0 0 1 1; 0 0 1 1" fill="freeze" /><g transform="rotate(0)"><animateTransform repeatCount="indefinite" type="rotate" attributeName="transform" dur="5s" begin="0s" calcMode="spline" values="0; 4; 4; 0; 0; 4; 4; 0; 0" keyTimes="0; 0.046667; 0.166666; 0.213333; 0.533333; 0.58; 0.7; 0.746667; 1" keySplines="0 0 1 1; 0 0 1 1; 0 0 1 1; 0 0 1 1; 0 0 1 1; 0 0 1 1; 0 0 1 1; 0 0 1 1" fill="freeze" /><g id="i30" transform="translate(-226,-105)"><path fill="#000000" d="M243.2,100C243.2,100,208.6,100,208.6,100C207.164,100,206,101.164,206,102.6C206,102.6,206,106.9,206,106.9C206,108.336,207.164,109.5,208.6,109.5C208.6,109.5,243.2,109.5,243.2,109.5C244.636,109.5,245.8,108.336,245.8,106.9C245.8,106.9,245.8,102.6,245.8,102.6C245.8,101.164,244.636,100,243.2,100C243.2,100,243.2,100,243.2,100Z" /></g></g></g></g><g id="i31"><path fill="#2e552a" d="M274.8,129.6C282.422,129.6,288.6,123.869,288.6,116.8C288.6,109.731,282.422,104,274.8,104C267.178,104,261,109.731,261,116.8C261,123.869,267.178,129.6,274.8,129.6C274.8,129.6,274.8,129.6,274.8,129.6Z" /></g><g id="i32"><path fill="#ffffff" d="M274.8,125.7C282.422,125.7,288.6,119.969,288.6,112.9C288.6,105.83,282.422,100.1,274.8,100.1C267.178,100.1,261,105.83,261,112.9C261,119.969,267.178,125.7,274.8,125.7C274.8,125.7,274.8,125.7,274.8,125.7Z" /></g><g><g transform="translate(275,108)"><animateTransform repeatCount="indefinite" type="translate" attributeName="transform" dur="5s" begin="0s" calcMode="spline" values="275 108; 270.992 108.901; 270.992 108.901; 278.63 108.92; 278.63 108.92; 275 108; 275 108; 270.992 108.901; 270.992 108.901; 278.63 108.92; 278.63 108.92; 275 108; 275 108" keyTimes="0; 0.046666; 0.166667; 0.213333; 0.326667; 0.346666; 0.533334; 0.58; 0.7; 0.746667; 0.86; 0.88; 1" keySplines="0 0 0.36 1; 0.65 0 0.36 1; 0.65 0 0.36 1; 0.65 0 1 1; 0.65 0 1 1; 0 0 0.36 1; 0 0 0.36 1; 0.65 0 0.36 1; 0.65 0 0.36 1; 0.65 0 1 1; 0.65 0 1 1; 0 0 1 1" fill="freeze" /><g id="i33" transform="translate(-275,-108)"><path fill="#000000" d="M275.1,116.8C280.126,116.8,284.2,113.039,284.2,108.4C284.2,103.761,280.126,100,275.1,100C270.074,100,266,103.761,266,108.4C266,113.039,270.074,116.8,275.1,116.8C275.1,116.8,275.1,116.8,275.1,116.8Z" /></g></g></g><g><g transform="translate(275,105)"><animateTransform repeatCount="indefinite" type="translate" attributeName="transform" dur="5s" begin="0s" calcMode="spline" values="275 105; 275 105; 275 102; 275 102; 275 105; 275 105; 275 102; 275 102; 275 105; 275 105" keyTimes="0; 0.166667; 0.213334; 0.326667; 0.346666; 0.7; 0.746667; 0.86; 0.88; 1" keySplines="0 0 1 1; 0 0 1 1; 0 0 1 1; 0 0 1 1; 0 0 1 1; 0 0 1 1; 0 0 1 1; 0 0 1 1; 0 0 1 1" fill="freeze" /><g transform="rotate(0)"><animateTransform repeatCount="indefinite" type="rotate" attributeName="transform" dur="5s" begin="0s" calcMode="spline" values="0; 0; 0; -4; -4; 0; 0; 0; 0; -4; -4; 0; 0" keyTimes="0; 0.046666; 0.166667; 0.213333; 0.326667; 0.346666; 0.533334; 0.58; 0.7; 0.746667; 0.86; 0.88; 1" keySplines="0 0 1 1; 0 0 1 1; 0 0 1 1; 0 0 1 1; 0 0 1 1; 0 0 1 1; 0 0 1 1; 0 0 1 1; 0 0 1 1; 0 0 1 1; 0 0 1 1; 0 0 1 1" fill="freeze" /><g id="i34" transform="translate(-275,-105)"><path fill="#000000" d="M292.2,100C292.2,100,257.6,100,257.6,100C256.164,100,255,101.164,255,102.6C255,102.6,255,106.9,255,106.9C255,108.336,256.164,109.5,257.6,109.5C257.6,109.5,292.2,109.5,292.2,109.5C293.636,109.5,294.8,108.336,294.8,106.9C294.8,106.9,294.8,102.6,294.8,102.6C294.8,101.164,293.636,100,292.2,100C292.2,100,292.2,100,292.2,100Z" /></g></g></g></g><g id="i35"><path fill="#2e552a" d="M237,158C237,158,264,158,264,158C265.1,158,266,158.9,266,160C266,161.1,265.1,162,264,162C264,162,237,162,237,162C235.9,162,235,161.1,235,160C235,158.9,235.9,158,237,158C237,158,237,158,237,158Z" /></g><g id="i36"><path fill="#2e552a" d="M300.6,77.699C300.6,77.699,199.9,77.699,199.9,77.699C199.9,77.699,199.9,81.599,199.9,81.599C199.9,81.599,300.6,81.599,300.6,81.599C300.6,81.599,300.6,77.699,300.6,77.699C300.6,77.699,300.6,77.699,300.6,77.699Z" /></g><g id="i37"><path fill="#13540d" d="M212.9,75.701C212.9,75.701,212.9,83.501,212.9,83.501C212.9,84.601,212,85.401,211,85.401C209.9,85.401,209.1,84.501,209.1,83.501C209.1,83.501,209.1,75.701,209.1,75.701C209.1,74.601,210,73.801,211,73.801C212.1,73.801,212.9,74.701,212.9,75.701C212.9,75.701,212.9,75.701,212.9,75.701Z" /></g><g id="i38"><path fill="#13540d" d="M226.2,75.701C226.2,75.701,226.2,83.501,226.2,83.501C226.2,84.601,225.3,85.401,224.3,85.401C223.2,85.401,222.4,84.501,222.4,83.501C222.4,83.501,222.4,75.701,222.4,75.701C222.4,74.601,223.3,73.801,224.3,73.801C225.4,73.801,226.2,74.701,226.2,75.701C226.2,75.701,226.2,75.701,226.2,75.701Z" /></g><g id="i39"><path fill="#13540d" d="M239.7,75.701C239.7,75.701,239.7,83.501,239.7,83.501C239.7,84.601,238.8,85.401,237.8,85.401C236.7,85.401,235.9,84.501,235.9,83.501C235.9,83.501,235.9,75.701,235.9,75.701C235.9,74.601,236.8,73.801,237.8,73.801C238.9,73.801,239.7,74.701,239.7,75.701C239.7,75.701,239.7,75.701,239.7,75.701Z" /></g><g id="i40"><path fill="#13540d" d="M253.101,75.701C253.101,75.701,253.101,83.501,253.101,83.501C253.101,84.601,252.201,85.401,251.201,85.401C250.101,85.401,249.301,84.501,249.301,83.501C249.301,83.501,249.301,75.701,249.301,75.701C249.301,74.601,250.201,73.801,251.201,73.801C252.301,73.801,253.101,74.701,253.101,75.701C253.101,75.701,253.101,75.701,253.101,75.701Z" /></g><g id="i41"><path fill="#13540d" d="M266.499,75.701C266.499,75.701,266.499,83.501,266.499,83.501C266.499,84.601,265.599,85.401,264.599,85.401C263.499,85.401,262.699,84.501,262.699,83.501C262.699,83.501,262.699,75.701,262.699,75.701C262.699,74.601,263.599,73.801,264.599,73.801C265.699,73.801,266.499,74.701,266.499,75.701C266.499,75.701,266.499,75.701,266.499,75.701Z" /></g><g id="i42"><path fill="#13540d" d="M279.9,75.701C279.9,75.701,279.9,83.501,279.9,83.501C279.9,84.601,279,85.401,278,85.401C276.9,85.401,276.1,84.501,276.1,83.501C276.1,83.501,276.1,75.701,276.1,75.701C276.1,74.601,277,73.801,278,73.801C279.1,73.801,279.9,74.701,279.9,75.701C279.9,75.701,279.9,75.701,279.9,75.701Z" /></g><g id="i43"><path fill="#13540d" d="M293.3,75.701C293.3,75.701,293.3,83.501,293.3,83.501C293.3,84.601,292.4,85.401,291.4,85.401C290.3,85.401,289.5,84.501,289.5,83.501C289.5,83.501,289.5,75.701,289.5,75.701C289.5,74.601,290.4,73.801,291.4,73.801C292.5,73.801,293.3,74.701,293.3,75.701C293.3,75.701,293.3,75.701,293.3,75.701Z" /></g><g id="i44"><path fill="#2e552a" d="M253.699,145C253.699,145,246.199,145,246.199,145C243.399,145,241.099,142.6,241.299,139.8C241.299,139.8,241.499,137.2,241.499,137.2C241.499,137.2,242.399,124,242.399,124C242.499,122,243.399,120.3,244.799,119C246.099,117.7,247.999,117,249.899,117C253.799,117,257.099,120,257.399,124C257.399,124,258.299,137.2,258.299,137.2C258.299,137.2,258.499,139.8,258.499,139.8C258.699,142.6,256.499,145,253.599,145C253.599,145,253.699,145,253.699,145C253.699,145,253.699,145,253.699,145Z" /></g><g id="i45"><path fill="#13540d" d="M247.001,143.999C247.001,144.299,247.001,144.699,247.001,144.999C247.001,144.999,246.301,144.999,246.301,144.999C243.501,144.999,241.201,142.599,241.401,139.799C241.401,139.799,241.601,137.199,241.601,137.199C244.701,137.899,247.001,140.699,247.001,143.999C247.001,143.999,247.001,143.999,247.001,143.999Z" /></g><g id="i46"><path fill="#13540d" d="M253.7,144.999C253.7,144.999,253,144.999,253,144.999C253,144.699,253,144.299,253,143.999C253,140.699,255.3,137.899,258.4,137.199C258.4,137.199,258.6,139.799,258.6,139.799C258.8,142.599,256.6,144.999,253.7,144.999C253.7,144.999,253.7,144.999,253.7,144.999Z" /></g></g><g transform="matrix(0.963,0,0,1,9.167,0.376)" id="i47"><path d="M224.677,92.087C224.677,92.087,250.964,92.088,250.964,92.088C250.964,92.088,275.46,92.152,275.46,92.152C275.46,92.152,275.46,92.152,275.46,92.152" stroke-linejoin="round" stroke-linecap="round" stroke-width="3" stroke="#2e552a"><animate repeatCount="indefinite" attributeName="d" dur="5s" begin="0s" calcMode="spline" values="M224.677,92.087C224.677,92.087,250.964,92.088,250.964,92.088C250.964,92.088,275.46,92.152,275.46,92.152C275.46,92.152,275.46,92.152,275.46,92.152; M222.489,90.706C222.489,90.706,237.597,93.119,250.84,93.481C264.083,93.843,275.46,92.152,275.46,92.152C275.46,92.152,275.46,92.152,275.46,92.152; M222.489,90.706C222.489,90.706,237.597,93.119,250.84,93.481C264.083,93.843,275.46,92.152,275.46,92.152C275.46,92.152,275.46,92.152,275.46,92.152; M224.677,92.087C224.677,92.087,250.964,92.088,250.964,92.088C250.964,92.088,275.46,92.152,275.46,92.152C275.46,92.152,275.46,92.152,275.46,92.152; M224.677,92.087C224.677,92.087,238.369,94.157,251.065,94.173C263.761,94.19,277.543,91.039,277.543,91.039C277.543,91.039,277.538,91.077,277.538,91.077; M224.677,92.087C224.677,92.087,238.369,94.157,251.065,94.173C263.761,94.19,277.543,91.039,277.543,91.039C277.543,91.039,277.538,91.077,277.538,91.077; M224.677,92.087C224.677,92.087,250.964,92.088,250.964,92.088C250.964,92.088,275.46,92.152,275.46,92.152C275.46,92.152,275.46,92.152,275.46,92.152; M224.677,92.087C224.677,92.087,250.964,92.088,250.964,92.088C250.964,92.088,275.46,92.152,275.46,92.152C275.46,92.152,275.46,92.152,275.46,92.152; M222.489,90.706C222.489,90.706,237.597,93.119,250.84,93.481C264.083,93.843,275.46,92.152,275.46,92.152C275.46,92.152,275.46,92.152,275.46,92.152; M222.489,90.706C222.489,90.706,237.597,93.119,250.84,93.481C264.083,93.843,275.46,92.152,275.46,92.152C275.46,92.152,275.46,92.152,275.46,92.152; M224.677,92.087C224.677,92.087,250.964,92.088,250.964,92.088C250.964,92.088,275.46,92.152,275.46,92.152C275.46,92.152,275.46,92.152,275.46,92.152; M224.677,92.087C224.677,92.087,238.369,94.157,251.065,94.173C263.761,94.19,277.543,91.039,277.543,91.039C277.543,91.039,277.538,91.077,277.538,91.077; M224.677,92.087C224.677,92.087,238.369,94.157,251.065,94.173C263.761,94.19,277.543,91.039,277.543,91.039C277.543,91.039,277.538,91.077,277.538,91.077; M224.677,92.087C224.677,92.087,250.964,92.088,250.964,92.088C250.964,92.088,275.46,92.152,275.46,92.152C275.46,92.152,275.46,92.152,275.46,92.152; M224.677,92.087C224.677,92.087,250.964,92.088,250.964,92.088C250.964,92.088,275.46,92.152,275.46,92.152C275.46,92.152,275.46,92.152,275.46,92.152" keyTimes="0; 0.046666; 0.16; 0.166667; 0.213333; 0.333333; 0.346666; 0.533334; 0.58; 0.693334; 0.7; 0.746667; 0.866666; 0.88; 1" keySplines="0 0 1 1; 0 0 1 1; 0 0 1 1; 0 0 1 1; 0 0 1 1; 0 0 1 1; 0 0 1 1; 0 0 1 1; 0 0 1 1; 0 0 1 1; 0 0 1 1; 0 0 1 1; 0 0 1 1; 0 0 1 1" fill="freeze" /></path></g></svg>